<svg xmlns="http://www.w3.org/2000/svg" viewBox="-121 533 532 278"><defs><style>.a{fill:#eee;}.b,.d{fill:none;stroke:#9c3;}.c,.e{fill:#9c3;}.d,.e{fill-rule:evenodd;}</style></defs><g transform="translate(-155 -55)"><g transform="translate(30 584)"><circle class="a" cx="1" cy="1" r="1" transform="translate(4 4)"/><g transform="translate(0 39.429)"><circle class="a" cx="1" cy="1" r="1" transform="translate(4 4)"/></g><g transform="translate(0 78.857)"><circle class="a" cx="1" cy="1" r="1" transform="translate(4 4)"/></g><g transform="translate(0 118.286)"><circle class="a" cx="1" cy="1" r="1" transform="translate(4 4)"/></g><g transform="translate(0 157.714)"><circle class="a" cx="1" cy="1" r="1" transform="translate(4 4)"/></g><g transform="translate(0 197.143)"><circle class="a" cx="1" cy="1" r="1" transform="translate(4 4)"/></g><g transform="translate(0 236.571)"><circle class="a" cx="1" cy="1" r="1" transform="translate(4 4)"/></g><g transform="translate(0 276)"><circle class="a" cx="1" cy="1" r="1" transform="translate(4 4)"/></g><g transform="translate(44.17 276)"><circle class="a" cx="1" cy="1" r="1" transform="translate(4 4)"/></g><g transform="translate(88.33 276)"><circle class="a" cx="1" cy="1" r="1" transform="translate(4 4)"/></g><g transform="translate(132.5 276)"><circle class="a" cx="1" cy="1" r="1" transform="translate(4 4)"/></g><g transform="translate(176.67 276)"><circle class="a" cx="1" cy="1" r="1" transform="translate(4 4)"/></g><g transform="translate(220.83 276)"><circle class="a" cx="1" cy="1" r="1" transform="translate(4 4)"/></g><g transform="translate(265 276)"><circle class="a" cx="1" cy="1" r="1" transform="translate(4 4)"/></g><g transform="translate(309.17 276)"><circle class="a" cx="1" cy="1" r="1" transform="translate(4 4)"/></g><g transform="translate(353.33 276)"><circle class="a" cx="1" cy="1" r="1" transform="translate(4 4)"/></g><g transform="translate(397.5 39.429)"><circle class="a" cx="1" cy="1" r="1" transform="translate(4 4)"/></g><g transform="translate(397.5 78.857)"><circle class="a" cx="1" cy="1" r="1" transform="translate(4 4)"/></g><g transform="translate(397.5 118.286)"><circle class="a" cx="1" cy="1" r="1" transform="translate(4 4)"/></g><g transform="translate(397.5 157.714)"><circle class="a" cx="1" cy="1" r="1" transform="translate(4 4)"/></g><g transform="translate(397.5 197.143)"><circle class="a" cx="1" cy="1" r="1" transform="translate(4 4)"/></g><g transform="translate(397.5 236.571)"><circle class="a" cx="1" cy="1" r="1" transform="translate(4 4)"/></g><g transform="translate(397.5 276)"><circle class="a" cx="1" cy="1" r="1" transform="translate(4 4)"/></g><g transform="translate(441.67 39.429)"><circle class="a" cx="1" cy="1" r="1" transform="translate(4 4)"/></g><g transform="translate(441.67 78.857)"><circle class="a" cx="1" cy="1" r="1" transform="translate(4 4)"/></g><g transform="translate(441.67 118.286)"><circle class="a" cx="1" cy="1" r="1" transform="translate(4 4)"/></g><g transform="translate(441.67 157.714)"><circle class="a" cx="1" cy="1" r="1" transform="translate(4 4)"/></g><g transform="translate(441.67 197.143)"><circle class="a" cx="1" cy="1" r="1" transform="translate(4 4)"/></g><g transform="translate(441.67 236.571)"><circle class="a" cx="1" cy="1" r="1" transform="translate(4 4)"/></g><g transform="translate(441.67 276)"><circle class="a" cx="1" cy="1" r="1" transform="translate(4 4)"/></g><g transform="translate(485.83 39.429)"><circle class="a" cx="1" cy="1" r="1" transform="translate(4 4)"/></g><g transform="translate(485.83 78.857)"><circle class="a" cx="1" cy="1" r="1" transform="translate(4 4)"/></g><g transform="translate(485.83 118.286)"><circle class="a" cx="1" cy="1" r="1" transform="translate(4 4)"/></g><g transform="translate(485.83 157.714)"><circle class="a" cx="1" cy="1" r="1" transform="translate(4 4)"/></g><g transform="translate(485.83 197.143)"><circle class="a" cx="1" cy="1" r="1" transform="translate(4 4)"/></g><g transform="translate(485.83 236.571)"><circle class="a" cx="1" cy="1" r="1" transform="translate(4 4)"/></g><g transform="translate(485.83 276)"><circle class="a" cx="1" cy="1" r="1" transform="translate(4 4)"/></g><g transform="translate(530 39.429)"><circle class="a" cx="1" cy="1" r="1" transform="translate(4 4)"/></g><g transform="translate(530 78.857)"><circle class="a" cx="1" cy="1" r="1" transform="translate(4 4)"/></g><g transform="translate(530 118.286)"><circle class="a" cx="1" cy="1" r="1" transform="translate(4 4)"/></g><g transform="translate(530 157.714)"><circle class="a" cx="1" cy="1" r="1" transform="translate(4 4)"/></g><g transform="translate(530 197.143)"><circle class="a" cx="1" cy="1" r="1" transform="translate(4 4)"/></g><g transform="translate(530 236.571)"><circle class="a" cx="1" cy="1" r="1" transform="translate(4 4)"/></g><g transform="translate(530 276)"><circle class="a" cx="1" cy="1" r="1" transform="translate(4 4)"/></g><g transform="translate(44.17)"><circle class="a" cx="1" cy="1" r="1" transform="translate(4 4)"/></g><g transform="translate(88.333)"><circle class="a" cx="1" cy="1" r="1" transform="translate(4 4)"/></g><g transform="translate(132.5)"><circle class="a" cx="1" cy="1" r="1" transform="translate(4 4)"/></g><g transform="translate(176.67)"><circle class="a" cx="1" cy="1" r="1" transform="translate(4 4)"/></g><g transform="translate(220.83)"><circle class="a" cx="1" cy="1" r="1" transform="translate(4 4)"/></g><g transform="translate(265)"><circle class="a" cx="1" cy="1" r="1" transform="translate(4 4)"/></g><g transform="translate(309.17)"><circle class="a" cx="1" cy="1" r="1" transform="translate(4 4)"/></g><g transform="translate(353.33)"><circle class="a" cx="1" cy="1" r="1" transform="translate(4 4)"/></g><g transform="translate(397.5)"><circle class="a" cx="1" cy="1" r="1" transform="translate(4 4)"/></g><g transform="translate(441.67)"><circle class="a" cx="1" cy="1" r="1" transform="translate(4 4)"/></g><g transform="translate(485.83)"><circle class="a" cx="1" cy="1" r="1" transform="translate(4 4)"/></g><g transform="translate(530)"><circle class="a" cx="1" cy="1" r="1" transform="translate(4 4)"/></g></g><g transform="translate(74.17 623.429)"><circle class="b" cx="3.5" cy="3.5" r="3.5" transform="translate(1.5 1.5)"/></g><g transform="translate(74.17 662.857)"><circle class="b" cx="3.5" cy="3.5" r="3.5" transform="translate(1.5 1.5)"/></g><g transform="translate(74.17 702.286)"><circle class="b" cx="3.5" cy="3.5" r="3.5" transform="translate(1.5 1.5)"/></g><g transform="translate(74.17 741.714)"><circle class="b" cx="3.5" cy="3.5" r="3.5" transform="translate(1.5 1.5)"/></g><g transform="translate(74.17 781.143)"><circle class="b" cx="3.5" cy="3.5" r="3.5" transform="translate(1.5 1.5)"/></g><g transform="translate(74.17 820.571)"><circle class="b" cx="3.5" cy="3.5" r="3.5" transform="translate(1.5 1.5)"/></g><g transform="translate(118.33 623.429)"><rect class="c" width="3" height="10" transform="translate(3.5)"/></g><g transform="translate(118.33 662.857)"><path class="c" d="M5,0l5,10H0Z"/><path class="d" d="M5,1.118.809,9.5H9.191Z"/></g><g transform="translate(118.33 702.286)"><g transform="translate(-1.25)"><path class="e" d="M6.25.994A6.725,6.725,0,0,0,0,5,6.725,6.725,0,0,0,6.25,9.006,6.725,6.725,0,0,0,12.5,5,6.725,6.725,0,0,0,6.25.994ZM4.545,5a1.654,1.654,0,0,0,1.7,1.6A1.654,1.654,0,0,0,7.955,5a1.654,1.654,0,0,0-1.7-1.6A1.654,1.654,0,0,0,4.545,5Z"/></g></g><g transform="translate(118.33 741.714)"><rect class="c" width="3.5" height="1" transform="translate(3.25 9)"/><rect class="c" width="4" height="2" transform="translate(3 6)"/><circle class="c" cx="3.375" cy="3.375" r="3.375" transform="translate(1.625 0.375)"/></g><g transform="translate(118.33 781.143)"><path class="e" d="M2,10H0V0H4V2H2V8H4v2Z"/><path class="e" d="M10,2v8H6V8H8V2H6V0h4Z"/></g><g transform="translate(118.33 820.571)"><g transform="translate(-0.5 -0.5)"><path class="e" d="M.038,2.915V0h2.9V.727a1.448,1.448,0,1,0,2.9,0V0h2.9V8.727H.038V5.812H.762a1.448,1.448,0,1,0,0-2.9Z"/><path class="e" d="M4.383,11.091A1.451,1.451,0,0,0,5.831,9.636V8.182h-2.9V9.636A1.451,1.451,0,0,0,4.383,11.091Z"/><path class="e" d="M11.091,4.364A1.451,1.451,0,0,0,9.636,2.915H8.182v2.9H9.636A1.451,1.451,0,0,0,11.091,4.364Z"/></g></g><g transform="translate(162.5 623.429)"><circle class="b" cx="3.5" cy="3.5" r="3.5" transform="translate(1.5 1.5)"/></g><g transform="translate(162.5 662.857)"><circle class="b" cx="3.5" cy="3.5" r="3.5" transform="translate(1.5 1.5)"/></g><g transform="translate(162.5 702.286)"><circle class="b" cx="3.5" cy="3.5" r="3.5" transform="translate(1.5 1.5)"/></g><g transform="translate(162.5 741.714)"><circle class="b" cx="3.5" cy="3.5" r="3.5" transform="translate(1.5 1.5)"/></g><g transform="translate(162.5 781.143)"><circle class="b" cx="3.5" cy="3.5" r="3.5" transform="translate(1.5 1.5)"/></g><g transform="translate(162.5 820.571)"><circle class="b" cx="3.5" cy="3.5" r="3.5" transform="translate(1.5 1.5)"/></g><g transform="translate(206.67 623.429)"><circle class="b" cx="3.5" cy="3.5" r="3.5" transform="translate(1.5 1.5)"/></g><g transform="translate(206.67 662.857)"><circle class="b" cx="3.5" cy="3.5" r="3.5" transform="translate(1.5 1.5)"/></g><g transform="translate(206.67 702.286)"><g transform="translate(-1.25)"><path class="e" d="M6.25.994A6.725,6.725,0,0,0,0,5,6.725,6.725,0,0,0,6.25,9.006,6.725,6.725,0,0,0,12.5,5,6.725,6.725,0,0,0,6.25.994ZM4.545,5a1.654,1.654,0,0,0,1.7,1.6A1.654,1.654,0,0,0,7.955,5a1.654,1.654,0,0,0-1.7-1.6A1.654,1.654,0,0,0,4.545,5Z"/></g></g><g transform="translate(206.67 741.714)"><circle class="b" cx="3.5" cy="3.5" r="3.5" transform="translate(1.5 1.5)"/></g><g transform="translate(206.67 781.143)"><circle class="b" cx="3.5" cy="3.5" r="3.5" transform="translate(1.5 1.5)"/></g><g transform="translate(206.67 820.571)"><circle class="b" cx="3.5" cy="3.5" r="3.5" transform="translate(1.5 1.5)"/></g><g transform="translate(250.83 623.429)"><circle class="b" cx="3.5" cy="3.5" r="3.5" transform="translate(1.5 1.5)"/></g><g transform="translate(250.83 662.857)"><circle class="b" cx="3.5" cy="3.5" r="3.5" transform="translate(1.5 1.5)"/></g><g transform="translate(250.83 702.286)"><circle class="b" cx="3.5" cy="3.5" r="3.5" transform="translate(1.5 1.5)"/></g><g transform="translate(250.83 741.714)"><rect class="c" width="3.5" height="1" transform="translate(3.25 9)"/><rect class="c" width="4" height="2" transform="translate(3 6)"/><circle class="c" cx="3.375" cy="3.375" r="3.375" transform="translate(1.625 0.375)"/></g><g transform="translate(250.83 781.143)"><circle class="b" cx="3.5" cy="3.5" r="3.5" transform="translate(1.5 1.5)"/></g><g transform="translate(250.83 820.571)"><g transform="translate(-0.5 -0.5)"><path class="e" d="M.038,2.915V0h2.9V.727a1.448,1.448,0,1,0,2.9,0V0h2.9V8.727H.038V5.812H.762a1.448,1.448,0,1,0,0-2.9Z"/><path class="e" d="M4.383,11.091A1.451,1.451,0,0,0,5.831,9.636V8.182h-2.9V9.636A1.451,1.451,0,0,0,4.383,11.091Z"/><path class="e" d="M11.091,4.364A1.451,1.451,0,0,0,9.636,2.915H8.182v2.9H9.636A1.451,1.451,0,0,0,11.091,4.364Z"/></g></g><g transform="translate(295 623.429)"><rect class="c" width="3" height="10" transform="translate(3.5)"/></g><g transform="translate(295 662.857)"><path class="c" d="M5,0l5,10H0Z"/><path class="d" d="M5,1.118.809,9.5H9.191Z"/></g><g transform="translate(295 702.286)"><circle class="b" cx="3.5" cy="3.5" r="3.5" transform="translate(1.5 1.5)"/></g><g transform="translate(295 741.714)"><circle class="b" cx="3.5" cy="3.5" r="3.5" transform="translate(1.5 1.5)"/></g><g transform="translate(295 781.143)"><path class="e" d="M2,10H0V0H4V2H2V8H4v2Z"/><path class="e" d="M10,2v8H6V8H8V2H6V0h4Z"/></g><g transform="translate(295 820.571)"><g transform="translate(-0.5 -0.5)"><path class="e" d="M.038,2.915V0h2.9V.727a1.448,1.448,0,1,0,2.9,0V0h2.9V8.727H.038V5.812H.762a1.448,1.448,0,1,0,0-2.9Z"/><path class="e" d="M4.383,11.091A1.451,1.451,0,0,0,5.831,9.636V8.182h-2.9V9.636A1.451,1.451,0,0,0,4.383,11.091Z"/><path class="e" d="M11.091,4.364A1.451,1.451,0,0,0,9.636,2.915H8.182v2.9H9.636A1.451,1.451,0,0,0,11.091,4.364Z"/></g></g><g transform="translate(339.17 623.429)"><circle class="b" cx="3.5" cy="3.5" r="3.5" transform="translate(1.5 1.5)"/></g><g transform="translate(339.17 662.857)"><circle class="b" cx="3.5" cy="3.5" r="3.5" transform="translate(1.5 1.5)"/></g><g transform="translate(339.17 702.286)"><g transform="translate(-1.25)"><path class="e" d="M6.25.994A6.725,6.725,0,0,0,0,5,6.725,6.725,0,0,0,6.25,9.006,6.725,6.725,0,0,0,12.5,5,6.725,6.725,0,0,0,6.25.994ZM4.545,5a1.654,1.654,0,0,0,1.7,1.6A1.654,1.654,0,0,0,7.955,5a1.654,1.654,0,0,0-1.7-1.6A1.654,1.654,0,0,0,4.545,5Z"/></g></g><g transform="translate(339.17 741.714)"><circle class="b" cx="3.5" cy="3.5" r="3.5" transform="translate(1.5 1.5)"/></g><g transform="translate(339.17 781.143)"><path class="e" d="M2,10H0V0H4V2H2V8H4v2Z"/><path class="e" d="M10,2v8H6V8H8V2H6V0h4Z"/></g><g transform="translate(339.17 820.571)"><g transform="translate(-0.5 -0.5)"><path class="e" d="M.038,2.915V0h2.9V.727a1.448,1.448,0,1,0,2.9,0V0h2.9V8.727H.038V5.812H.762a1.448,1.448,0,1,0,0-2.9Z"/><path class="e" d="M4.383,11.091A1.451,1.451,0,0,0,5.831,9.636V8.182h-2.9V9.636A1.451,1.451,0,0,0,4.383,11.091Z"/><path class="e" d="M11.091,4.364A1.451,1.451,0,0,0,9.636,2.915H8.182v2.9H9.636A1.451,1.451,0,0,0,11.091,4.364Z"/></g></g><g transform="translate(383.33 623.429)"><circle class="b" cx="3.5" cy="3.5" r="3.5" transform="translate(1.5 1.5)"/></g><g transform="translate(383.33 662.857)"><path class="c" d="M5,0l5,10H0Z"/><path class="d" d="M5,1.118.809,9.5H9.191Z"/></g><g transform="translate(383.33 702.286)"><g transform="translate(-1.25)"><path class="e" d="M6.25.994A6.725,6.725,0,0,0,0,5,6.725,6.725,0,0,0,6.25,9.006,6.725,6.725,0,0,0,12.5,5,6.725,6.725,0,0,0,6.25.994ZM4.545,5a1.654,1.654,0,0,0,1.7,1.6A1.654,1.654,0,0,0,7.955,5a1.654,1.654,0,0,0-1.7-1.6A1.654,1.654,0,0,0,4.545,5Z"/></g></g><g transform="translate(383.33 741.714)"><rect class="c" width="3.5" height="1" transform="translate(3.25 9)"/><rect class="c" width="4" height="2" transform="translate(3 6)"/><circle class="c" cx="3.375" cy="3.375" r="3.375" transform="translate(1.625 0.375)"/></g><g transform="translate(383.33 781.143)"><path class="e" d="M2,10H0V0H4V2H2V8H4v2Z"/><path class="e" d="M10,2v8H6V8H8V2H6V0h4Z"/></g><g transform="translate(383.33 820.571)"><circle class="b" cx="3.5" cy="3.5" r="3.5" transform="translate(1.5 1.5)"/></g></g></svg>