<svg xmlns="http://www.w3.org/2000/svg" xmlns:xlink="http://www.w3.org/1999/xlink" viewBox="-155 -55 600 900"><defs><style>.a{clip-path:url(#b);}.b{fill:#eee;}.c,.d,.j,.k{fill:#272822;}.d{font-size:48px;}.d,.k{font-family:Lato-Black, Lato;font-weight:800;}.e{font-size:24px;}.f,.h{fill:none;stroke:#9c3;}.g,.i{fill:#9c3;}.h,.i{fill-rule:evenodd;}.j,.l{font-size:18px;}.j{font-family:Lato-BoldItalic, Lato;font-weight:700;font-style:italic;}.k{font-size:9px;}.m{fill:#fff;}</style><clipPath id="b"><rect x="-155" y="-55" width="600" height="900"/></clipPath></defs><g id="a" class="a"><rect class="m" x="-155" y="-55" width="600" height="900"/><rect class="b" width="600" height="556" transform="translate(-155 -55)"/><rect class="c" width="600" height="344" transform="translate(-155 501)"/><text class="d" transform="translate(-75 218)"><tspan x="0" y="0">CODING </tspan><tspan class="e" y="0">FOR</tspan><tspan x="0" y="48">DESIGNERS</tspan></text><g transform="translate(-125 529)"><circle class="b" cx="1" cy="1" r="1" transform="translate(4 4)"/><g transform="translate(0 39.429)"><circle class="b" cx="1" cy="1" r="1" transform="translate(4 4)"/></g><g transform="translate(0 78.857)"><circle class="b" cx="1" cy="1" r="1" transform="translate(4 4)"/></g><g transform="translate(0 118.286)"><circle class="b" cx="1" cy="1" r="1" transform="translate(4 4)"/></g><g transform="translate(0 157.714)"><circle class="b" cx="1" cy="1" r="1" transform="translate(4 4)"/></g><g transform="translate(0 197.143)"><circle class="b" cx="1" cy="1" r="1" transform="translate(4 4)"/></g><g transform="translate(0 236.571)"><circle class="b" cx="1" cy="1" r="1" transform="translate(4 4)"/></g><g transform="translate(0 276)"><circle class="b" cx="1" cy="1" r="1" transform="translate(4 4)"/></g><g transform="translate(44.17 276)"><circle class="b" cx="1" cy="1" r="1" transform="translate(4 4)"/></g><g transform="translate(88.33 276)"><circle class="b" cx="1" cy="1" r="1" transform="translate(4 4)"/></g><g transform="translate(132.5 276)"><circle class="b" cx="1" cy="1" r="1" transform="translate(4 4)"/></g><g transform="translate(176.67 276)"><circle class="b" cx="1" cy="1" r="1" transform="translate(4 4)"/></g><g transform="translate(220.83 276)"><circle class="b" cx="1" cy="1" r="1" transform="translate(4 4)"/></g><g transform="translate(265 276)"><circle class="b" cx="1" cy="1" r="1" transform="translate(4 4)"/></g><g transform="translate(309.17 276)"><circle class="b" cx="1" cy="1" r="1" transform="translate(4 4)"/></g><g transform="translate(353.33 276)"><circle class="b" cx="1" cy="1" r="1" transform="translate(4 4)"/></g><g transform="translate(397.5 39.429)"><circle class="b" cx="1" cy="1" r="1" transform="translate(4 4)"/></g><g transform="translate(397.5 78.857)"><circle class="b" cx="1" cy="1" r="1" transform="translate(4 4)"/></g><g transform="translate(397.5 118.286)"><circle class="b" cx="1" cy="1" r="1" transform="translate(4 4)"/></g><g transform="translate(397.5 157.714)"><circle class="b" cx="1" cy="1" r="1" transform="translate(4 4)"/></g><g transform="translate(397.5 197.143)"><circle class="b" cx="1" cy="1" r="1" transform="translate(4 4)"/></g><g transform="translate(397.5 236.571)"><circle class="b" cx="1" cy="1" r="1" transform="translate(4 4)"/></g><g transform="translate(397.5 276)"><circle class="b" cx="1" cy="1" r="1" transform="translate(4 4)"/></g><g transform="translate(441.67 39.429)"><circle class="b" cx="1" cy="1" r="1" transform="translate(4 4)"/></g><g transform="translate(441.67 78.857)"><circle class="b" cx="1" cy="1" r="1" transform="translate(4 4)"/></g><g transform="translate(441.67 118.286)"><circle class="b" cx="1" cy="1" r="1" transform="translate(4 4)"/></g><g transform="translate(441.67 157.714)"><circle class="b" cx="1" cy="1" r="1" transform="translate(4 4)"/></g><g transform="translate(441.67 197.143)"><circle class="b" cx="1" cy="1" r="1" transform="translate(4 4)"/></g><g transform="translate(441.67 236.571)"><circle class="b" cx="1" cy="1" r="1" transform="translate(4 4)"/></g><g transform="translate(441.67 276)"><circle class="b" cx="1" cy="1" r="1" transform="translate(4 4)"/></g><g transform="translate(485.83 39.429)"><circle class="b" cx="1" cy="1" r="1" transform="translate(4 4)"/></g><g transform="translate(485.83 78.857)"><circle class="b" cx="1" cy="1" r="1" transform="translate(4 4)"/></g><g transform="translate(485.83 118.286)"><circle class="b" cx="1" cy="1" r="1" transform="translate(4 4)"/></g><g transform="translate(485.83 157.714)"><circle class="b" cx="1" cy="1" r="1" transform="translate(4 4)"/></g><g transform="translate(485.83 197.143)"><circle class="b" cx="1" cy="1" r="1" transform="translate(4 4)"/></g><g transform="translate(485.83 236.571)"><circle class="b" cx="1" cy="1" r="1" transform="translate(4 4)"/></g><g transform="translate(485.83 276)"><circle class="b" cx="1" cy="1" r="1" transform="translate(4 4)"/></g><g transform="translate(530 39.429)"><circle class="b" cx="1" cy="1" r="1" transform="translate(4 4)"/></g><g transform="translate(530 78.857)"><circle class="b" cx="1" cy="1" r="1" transform="translate(4 4)"/></g><g transform="translate(530 118.286)"><circle class="b" cx="1" cy="1" r="1" transform="translate(4 4)"/></g><g transform="translate(530 157.714)"><circle class="b" cx="1" cy="1" r="1" transform="translate(4 4)"/></g><g transform="translate(530 197.143)"><circle class="b" cx="1" cy="1" r="1" transform="translate(4 4)"/></g><g transform="translate(530 236.571)"><circle class="b" cx="1" cy="1" r="1" transform="translate(4 4)"/></g><g transform="translate(530 276)"><circle class="b" cx="1" cy="1" r="1" transform="translate(4 4)"/></g><g transform="translate(44.17)"><circle class="b" cx="1" cy="1" r="1" transform="translate(4 4)"/></g><g transform="translate(88.333)"><circle class="b" cx="1" cy="1" r="1" transform="translate(4 4)"/></g><g transform="translate(132.5)"><circle class="b" cx="1" cy="1" r="1" transform="translate(4 4)"/></g><g transform="translate(176.67)"><circle class="b" cx="1" cy="1" r="1" transform="translate(4 4)"/></g><g transform="translate(220.83)"><circle class="b" cx="1" cy="1" r="1" transform="translate(4 4)"/></g><g transform="translate(265)"><circle class="b" cx="1" cy="1" r="1" transform="translate(4 4)"/></g><g transform="translate(309.17)"><circle class="b" cx="1" cy="1" r="1" transform="translate(4 4)"/></g><g transform="translate(353.33)"><circle class="b" cx="1" cy="1" r="1" transform="translate(4 4)"/></g><g transform="translate(397.5)"><circle class="b" cx="1" cy="1" r="1" transform="translate(4 4)"/></g><g transform="translate(441.67)"><circle class="b" cx="1" cy="1" r="1" transform="translate(4 4)"/></g><g transform="translate(485.83)"><circle class="b" cx="1" cy="1" r="1" transform="translate(4 4)"/></g><g transform="translate(530)"><circle class="b" cx="1" cy="1" r="1" transform="translate(4 4)"/></g></g><g transform="translate(-80.83 568.429)"><circle class="f" cx="3.5" cy="3.5" r="3.5" transform="translate(1.5 1.5)"/></g><g transform="translate(-80.83 607.857)"><circle class="f" cx="3.5" cy="3.5" r="3.5" transform="translate(1.5 1.5)"/></g><g transform="translate(-80.83 647.286)"><circle class="f" cx="3.5" cy="3.5" r="3.5" transform="translate(1.5 1.5)"/></g><g transform="translate(-80.83 686.714)"><circle class="f" cx="3.5" cy="3.5" r="3.5" transform="translate(1.5 1.5)"/></g><g transform="translate(-80.83 726.143)"><circle class="f" cx="3.5" cy="3.5" r="3.5" transform="translate(1.5 1.5)"/></g><g transform="translate(-80.83 765.571)"><circle class="f" cx="3.5" cy="3.5" r="3.5" transform="translate(1.5 1.5)"/></g><g transform="translate(-36.67 568.429)"><rect class="g" width="3" height="10" transform="translate(3.5)"/></g><g transform="translate(-36.67 607.857)"><path class="g" d="M5,0l5,10H0Z"/><path class="h" d="M5,1.118.809,9.5H9.191Z"/></g><g transform="translate(-36.67 647.286)"><g transform="translate(-1.25)"><path class="i" d="M6.25.994A6.725,6.725,0,0,0,0,5,6.725,6.725,0,0,0,6.25,9.006,6.725,6.725,0,0,0,12.5,5,6.725,6.725,0,0,0,6.25.994ZM4.545,5a1.654,1.654,0,0,0,1.7,1.6A1.654,1.654,0,0,0,7.955,5a1.654,1.654,0,0,0-1.7-1.6A1.654,1.654,0,0,0,4.545,5Z"/></g></g><g transform="translate(-36.67 686.714)"><rect class="g" width="3.5" height="1" transform="translate(3.25 9)"/><rect class="g" width="4" height="2" transform="translate(3 6)"/><circle class="g" cx="3.375" cy="3.375" r="3.375" transform="translate(1.625 0.375)"/></g><g transform="translate(-36.67 726.143)"><path class="i" d="M2,10H0V0H4V2H2V8H4v2Z"/><path class="i" d="M10,2v8H6V8H8V2H6V0h4Z"/></g><g transform="translate(-36.67 765.571)"><g transform="translate(-0.5 -0.5)"><path class="i" d="M.038,2.915V0h2.9V.727a1.448,1.448,0,1,0,2.9,0V0h2.9V8.727H.038V5.812H.762a1.448,1.448,0,1,0,0-2.9Z"/><path class="i" d="M4.383,11.091A1.451,1.451,0,0,0,5.831,9.636V8.182h-2.9V9.636A1.451,1.451,0,0,0,4.383,11.091Z"/><path class="i" d="M11.091,4.364A1.451,1.451,0,0,0,9.636,2.915H8.182v2.9H9.636A1.451,1.451,0,0,0,11.091,4.364Z"/></g></g><g transform="translate(7.5 568.429)"><circle class="f" cx="3.5" cy="3.5" r="3.5" transform="translate(1.5 1.5)"/></g><g transform="translate(7.5 607.857)"><circle class="f" cx="3.5" cy="3.5" r="3.5" transform="translate(1.5 1.5)"/></g><g transform="translate(7.5 647.286)"><circle class="f" cx="3.5" cy="3.5" r="3.5" transform="translate(1.5 1.5)"/></g><g transform="translate(7.5 686.714)"><circle class="f" cx="3.5" cy="3.5" r="3.5" transform="translate(1.5 1.5)"/></g><g transform="translate(7.5 726.143)"><circle class="f" cx="3.5" cy="3.5" r="3.5" transform="translate(1.5 1.5)"/></g><g transform="translate(7.5 765.571)"><circle class="f" cx="3.5" cy="3.5" r="3.5" transform="translate(1.5 1.5)"/></g><g transform="translate(51.67 568.429)"><circle class="f" cx="3.5" cy="3.5" r="3.5" transform="translate(1.5 1.5)"/></g><g transform="translate(51.67 607.857)"><circle class="f" cx="3.5" cy="3.5" r="3.5" transform="translate(1.5 1.5)"/></g><g transform="translate(51.67 647.286)"><g transform="translate(-1.25)"><path class="i" d="M6.25.994A6.725,6.725,0,0,0,0,5,6.725,6.725,0,0,0,6.25,9.006,6.725,6.725,0,0,0,12.5,5,6.725,6.725,0,0,0,6.25.994ZM4.545,5a1.654,1.654,0,0,0,1.7,1.6A1.654,1.654,0,0,0,7.955,5a1.654,1.654,0,0,0-1.7-1.6A1.654,1.654,0,0,0,4.545,5Z"/></g></g><g transform="translate(51.67 686.714)"><circle class="f" cx="3.5" cy="3.5" r="3.5" transform="translate(1.5 1.5)"/></g><g transform="translate(51.67 726.143)"><circle class="f" cx="3.5" cy="3.5" r="3.5" transform="translate(1.5 1.5)"/></g><g transform="translate(51.67 765.571)"><circle class="f" cx="3.5" cy="3.5" r="3.5" transform="translate(1.5 1.5)"/></g><g transform="translate(95.83 568.429)"><circle class="f" cx="3.5" cy="3.5" r="3.5" transform="translate(1.5 1.5)"/></g><g transform="translate(95.83 607.857)"><circle class="f" cx="3.5" cy="3.5" r="3.5" transform="translate(1.5 1.5)"/></g><g transform="translate(95.83 647.286)"><circle class="f" cx="3.5" cy="3.5" r="3.5" transform="translate(1.5 1.5)"/></g><g transform="translate(95.83 686.714)"><rect class="g" width="3.5" height="1" transform="translate(3.25 9)"/><rect class="g" width="4" height="2" transform="translate(3 6)"/><circle class="g" cx="3.375" cy="3.375" r="3.375" transform="translate(1.625 0.375)"/></g><g transform="translate(95.83 726.143)"><circle class="f" cx="3.5" cy="3.5" r="3.5" transform="translate(1.5 1.5)"/></g><g transform="translate(95.83 765.571)"><g transform="translate(-0.5 -0.5)"><path class="i" d="M.038,2.915V0h2.9V.727a1.448,1.448,0,1,0,2.9,0V0h2.9V8.727H.038V5.812H.762a1.448,1.448,0,1,0,0-2.9Z"/><path class="i" d="M4.383,11.091A1.451,1.451,0,0,0,5.831,9.636V8.182h-2.9V9.636A1.451,1.451,0,0,0,4.383,11.091Z"/><path class="i" d="M11.091,4.364A1.451,1.451,0,0,0,9.636,2.915H8.182v2.9H9.636A1.451,1.451,0,0,0,11.091,4.364Z"/></g></g><g transform="translate(140 568.429)"><rect class="g" width="3" height="10" transform="translate(3.5)"/></g><g transform="translate(140 607.857)"><path class="g" d="M5,0l5,10H0Z"/><path class="h" d="M5,1.118.809,9.5H9.191Z"/></g><g transform="translate(140 647.286)"><circle class="f" cx="3.5" cy="3.5" r="3.5" transform="translate(1.5 1.5)"/></g><g transform="translate(140 686.714)"><circle class="f" cx="3.5" cy="3.5" r="3.5" transform="translate(1.5 1.5)"/></g><g transform="translate(140 726.143)"><path class="i" d="M2,10H0V0H4V2H2V8H4v2Z"/><path class="i" d="M10,2v8H6V8H8V2H6V0h4Z"/></g><g transform="translate(140 765.571)"><g transform="translate(-0.5 -0.5)"><path class="i" d="M.038,2.915V0h2.9V.727a1.448,1.448,0,1,0,2.9,0V0h2.9V8.727H.038V5.812H.762a1.448,1.448,0,1,0,0-2.9Z"/><path class="i" d="M4.383,11.091A1.451,1.451,0,0,0,5.831,9.636V8.182h-2.9V9.636A1.451,1.451,0,0,0,4.383,11.091Z"/><path class="i" d="M11.091,4.364A1.451,1.451,0,0,0,9.636,2.915H8.182v2.9H9.636A1.451,1.451,0,0,0,11.091,4.364Z"/></g></g><g transform="translate(184.17 568.429)"><circle class="f" cx="3.5" cy="3.5" r="3.5" transform="translate(1.5 1.5)"/></g><g transform="translate(184.17 607.857)"><circle class="f" cx="3.5" cy="3.5" r="3.5" transform="translate(1.5 1.5)"/></g><g transform="translate(184.17 647.286)"><g transform="translate(-1.25)"><path class="i" d="M6.25.994A6.725,6.725,0,0,0,0,5,6.725,6.725,0,0,0,6.25,9.006,6.725,6.725,0,0,0,12.5,5,6.725,6.725,0,0,0,6.25.994ZM4.545,5a1.654,1.654,0,0,0,1.7,1.6A1.654,1.654,0,0,0,7.955,5a1.654,1.654,0,0,0-1.7-1.6A1.654,1.654,0,0,0,4.545,5Z"/></g></g><g transform="translate(184.17 686.714)"><circle class="f" cx="3.5" cy="3.5" r="3.5" transform="translate(1.5 1.5)"/></g><g transform="translate(184.17 726.143)"><path class="i" d="M2,10H0V0H4V2H2V8H4v2Z"/><path class="i" d="M10,2v8H6V8H8V2H6V0h4Z"/></g><g transform="translate(184.17 765.571)"><g transform="translate(-0.5 -0.5)"><path class="i" d="M.038,2.915V0h2.9V.727a1.448,1.448,0,1,0,2.9,0V0h2.9V8.727H.038V5.812H.762a1.448,1.448,0,1,0,0-2.9Z"/><path class="i" d="M4.383,11.091A1.451,1.451,0,0,0,5.831,9.636V8.182h-2.9V9.636A1.451,1.451,0,0,0,4.383,11.091Z"/><path class="i" d="M11.091,4.364A1.451,1.451,0,0,0,9.636,2.915H8.182v2.9H9.636A1.451,1.451,0,0,0,11.091,4.364Z"/></g></g><g transform="translate(228.33 568.429)"><circle class="f" cx="3.5" cy="3.5" r="3.5" transform="translate(1.5 1.5)"/></g><g transform="translate(228.33 607.857)"><path class="g" d="M5,0l5,10H0Z"/><path class="h" d="M5,1.118.809,9.5H9.191Z"/></g><g transform="translate(228.33 647.286)"><g transform="translate(-1.25)"><path class="i" d="M6.25.994A6.725,6.725,0,0,0,0,5,6.725,6.725,0,0,0,6.25,9.006,6.725,6.725,0,0,0,12.5,5,6.725,6.725,0,0,0,6.25.994ZM4.545,5a1.654,1.654,0,0,0,1.7,1.6A1.654,1.654,0,0,0,7.955,5a1.654,1.654,0,0,0-1.7-1.6A1.654,1.654,0,0,0,4.545,5Z"/></g></g><g transform="translate(228.33 686.714)"><rect class="g" width="3.5" height="1" transform="translate(3.25 9)"/><rect class="g" width="4" height="2" transform="translate(3 6)"/><circle class="g" cx="3.375" cy="3.375" r="3.375" transform="translate(1.625 0.375)"/></g><g transform="translate(228.33 726.143)"><path class="i" d="M2,10H0V0H4V2H2V8H4v2Z"/><path class="i" d="M10,2v8H6V8H8V2H6V0h4Z"/></g><g transform="translate(228.33 765.571)"><circle class="f" cx="3.5" cy="3.5" r="3.5" transform="translate(1.5 1.5)"/></g><text class="j" transform="translate(-75 301)"><tspan x="0" y="0">A Visually Infused Prerequisite</tspan><tspan x="0" y="22">for Learning and Talking Code</tspan></text><text class="k" transform="translate(-75 501)"><tspan x="0" y="0">BY</tspan><tspan class="l" y="0" xml:space="preserve"> DEREK KNOX</tspan></text></g></svg>